# xmcd
#
# Track frame offsets: 
#        150
#        13380
#        24130
#        41158
#        51780
#        65373
#        79368
#        90405
#        100830
#        116708
#        130975
#        146265
#
# Disc length: 2119 seconds
#
# Revision: 5
# Processed by: cddbd v1.5.2PL0 Copyright (c) Steve Scherf et al.
# Submitted via: ExactAudioCopy v1.0b3
#
DISCID=9c08450c
DTITLE=Krauss, Alison - I've Got That Old Feeling
DYEAR=1990
DGENRE=Country
TTITLE0=I've Got That Old Feeling
TTITLE1=Dark Skies
TTITLE2=Wish I Still Had You
TTITLE3=Endless Highway
TTITLE4=Winter Of A Broken Heart
TTITLE5=It's Over
TTITLE6=Will You Be Leaving
TTITLE7=Steel Rails
TTITLE8=Tonight I'll Be Lonely Too
TTITLE9=One Good Reason
TTITLE10=That Makes One Of Us
TTITLE11=Longest Highway
EXTD=YEAR: 1990
EXTT0=
EXTT1=
EXTT2=
EXTT3=
EXTT4=
EXTT5=
EXTT6=
EXTT7=
EXTT8=
EXTT9=
EXTT10=
EXTT11=
PLAYORDER=
